<?xml version="1.0" standalone="no"?>
<!DOCTYPE svg PUBLIC "-//W3C//DTD SVG 20010904//EN"
 "http://www.w3.org/TR/2001/REC-SVG-20010904/DTD/svg10.dtd">
<svg version="1.0" xmlns="http://www.w3.org/2000/svg"
 width="536.000000pt" height="536.000000pt" viewBox="0 0 536.000000 536.000000"
 preserveAspectRatio="xMidYMid meet">
<metadata>
Created by potrace 1.14, written by Peter Selinger 2001-2017
</metadata>
<g transform="translate(0.000000,536.000000) scale(0.100000,-0.100000)"
fill="#000000" stroke="none">
<path d="M4008 4740 c-27 -8 -129 -61 -138 -71 -3 -3 -19 -13 -35 -22 -30 -15
-33 -14 -113 26 -73 36 -91 41 -155 41 -70 1 -74 0 -174 -59 -57 -32 -103 -62
-103 -66 0 -4 13 -10 30 -14 16 -3 66 -28 111 -55 243 -147 530 -472 763 -865
42 -71 81 -137 86 -145 14 -24 130 -260 130 -265 0 -2 13 -33 29 -67 47 -104
118 -311 146 -428 37 -152 44 -211 42 -357 l-2 -132 30 18 c16 10 59 35 95 54
127 70 156 126 164 315 1 35 5 39 88 87 49 28 99 62 112 74 83 78 72 327 -26
616 -181 532 -590 1112 -905 1281 -56 31 -135 46 -175 34z"/>
<path d="M3115 4490 c-98 -30 -142 -142 -132 -334 9 -159 77 -430 150 -596 10
-25 25 -58 32 -75 7 -16 29 -67 50 -113 33 -70 36 -85 24 -93 -11 -7 -527
-303 -709 -407 -19 -11 -64 -36 -100 -57 -36 -21 -85 -49 -110 -63 -25 -14
-130 -74 -233 -133 -104 -60 -191 -109 -195 -109 -4 0 -41 48 -82 107 -108
155 -207 273 -330 394 -120 117 -195 175 -285 218 -78 37 -101 44 -155 46 -51
2 -64 -3 -175 -64 -104 -58 -114 -68 -78 -77 117 -30 363 -228 545 -442 207
-240 434 -615 576 -947 150 -353 224 -689 190 -874 -4 -24 -6 -46 -3 -49 2 -2
23 7 47 21 24 13 66 37 93 52 72 40 102 72 126 134 43 117 25 351 -44 566 -2
6 -9 30 -16 55 -19 66 -118 315 -157 392 -25 50 -30 68 -21 76 14 10 52 32
682 392 248 141 469 268 492 281 141 82 172 99 180 99 4 0 15 -12 25 -28 84
-139 266 -362 408 -497 153 -146 301 -234 404 -240 162 -9 231 128 203 402
-11 102 -57 296 -93 388 -9 22 -17 47 -19 55 -13 61 -170 397 -252 542 -73
129 -196 323 -213 338 -3 3 -23 30 -44 60 -121 171 -298 357 -451 473 -113 86
-252 131 -330 107z"/>
<path d="M593 3049 c-79 -23 -130 -116 -137 -250 l-3 -64 86 -43 c47 -24 88
-46 91 -50 3 -4 31 -27 63 -51 137 -104 346 -354 500 -598 87 -139 234 -437
286 -579 82 -227 110 -366 107 -533 l-2 -124 75 -36 c121 -57 234 -49 282 21
39 57 52 112 54 226 2 153 -25 290 -101 513 -200 591 -647 1244 -1015 1485
-112 73 -215 103 -286 83z"/>
<path d="M288 2617 c-64 -32 -91 -93 -92 -206 -1 -107 9 -185 35 -281 11 -41
22 -82 24 -90 24 -92 116 -314 184 -445 161 -307 304 -509 496 -700 121 -121
128 -127 200 -170 100 -61 126 -69 200 -67 50 2 83 26 115 83 22 40 25 55 25
154 0 133 -8 190 -50 340 -46 163 -184 467 -300 660 -45 75 -172 264 -184 275
-4 3 -33 39 -65 80 -89 112 -226 242 -319 303 -128 83 -198 100 -269 64z m536
-797 c100 -61 185 -246 150 -329 -23 -54 -67 -60 -129 -17 -65 46 -119 126
-142 212 -22 84 -11 138 31 154 28 10 50 5 90 -20z"/>
</g>
</svg>
